<?xml version="1.0" encoding="UTF-8" standalone="no"?>
<!DOCTYPE svg PUBLIC "-//W3C//DTD SVG 1.1//EN" "http://www.w3.org/Graphics/SVG/1.1/DTD/svg11.dtd">
<svg version="1.1" xmlns="http://www.w3.org/2000/svg" xmlns:xlink="http://www.w3.org/1999/xlink" preserveAspectRatio="xMidYMid meet" viewBox="0 0 150 400" width="150" height="400"><defs><path d="M68.99 363.23C22.2 363.23 21.31 353.76 24.37 350.52C27.44 347.26 25.98 341.85 26.84 331.63C27.69 321.4 24.66 187.13 24.37 177.1C24.09 167.06 26.48 163.14 28.58 155.13C30.67 147.11 53.85 136.59 54.45 127.59C55.04 118.6 51.97 111.34 50.63 104.17C49.28 97.02 58.23 75.76 58.23 75.76C58.23 70.78 58.23 31 58.23 26.02C58.23 26.02 62.42 22.38 74.13 21.67C74.13 21.67 74.13 21.64 74.13 21.6L75 21.63L75.87 21.6C75.87 21.64 75.87 21.67 75.87 21.67C87.58 22.38 91.77 26.02 91.77 26.02C91.77 31 91.77 70.78 91.77 75.76C91.77 75.76 100.72 97.02 99.37 104.17C98.03 111.34 94.96 118.6 95.55 127.59C96.15 136.59 119.33 147.11 121.42 155.13C123.52 163.14 125.91 167.06 125.63 177.1C125.34 187.13 122.31 321.4 123.16 331.63C124.02 341.85 122.56 347.26 125.63 350.52C128.69 353.76 127.8 363.23 81.01 363.23C80.61 363.23 78.6 363.23 75 363.23C71.4 363.23 69.39 363.23 68.99 363.23Z" id="g3SeiwoFk7"></path><path d="M68.99 363.23C22.2 363.23 21.31 353.76 24.37 350.52C27.44 347.26 25.98 341.85 26.84 331.63C27.69 321.4 24.66 187.13 24.37 177.1C24.09 167.06 26.48 163.14 28.58 155.13C30.67 147.11 53.85 136.59 54.45 127.59C55.04 118.6 51.97 111.34 50.63 104.17C49.28 97.02 58.23 75.76 58.23 75.76C58.23 70.78 58.23 31 58.23 26.02C58.23 26.02 62.42 22.38 74.13 21.67C74.13 21.67 74.13 21.64 74.13 21.6L75 21.63L75.87 21.6C71.74 54.09 69.45 72.15 68.99 75.76C68.99 75.76 60.47 85.75 65.4 91.51C70.13 97.05 68.39 118.6 68.99 127.59C69.59 136.59 50.37 166.79 64.8 222.01C66.9 230.02 65.08 254.43 64.8 264.47C64.51 274.51 73.27 329.07 74.13 339.29C74.98 349.52 87.53 347.43 81.01 363.23C80.61 363.23 78.6 363.23 75 363.23C71.4 363.23 69.39 363.23 68.99 363.23Z" id="a67RG5AZIG"></path><path d="M26.84 331.63C27.69 321.4 24.66 202.52 24.37 192.48C24.09 182.45 125.91 182.45 125.63 192.48C125.34 202.52 122.31 321.4 123.16 331.63C124.02 341.85 25.98 341.85 26.84 331.63Z" id="a3NcBdX54"></path><path d="M33.99 312.31C34.71 305.16 32.13 221.99 31.88 214.96C31.64 207.95 118.36 207.95 118.11 214.96C117.87 221.99 115.28 305.16 116.01 312.31C116.74 319.47 33.26 319.47 33.99 312.31Z" id="a2VvduthSp"></path><path d="M54.6 85.23C54.84 84.6 56.05 81.44 58.23 75.76C58.23 45.92 58.23 29.34 58.23 26.02C58.23 26.02 62.42 22.38 74.13 21.67C74.13 21.67 74.13 21.64 74.13 21.6L75 21.63L75.87 21.6C75.87 21.64 75.87 21.67 75.87 21.67C87.58 22.38 91.77 26.02 91.77 26.02C91.77 31 91.77 70.78 91.77 75.76C91.77 75.76 94.41 80.79 96.01 87.33C96.86 90.76 51.99 92.04 54.6 85.23Z" id="f1Tn7Hn0G"></path><path d="M54.54 85.43C55.6 81.34 58.23 75.76 58.23 75.76C58.23 70.78 58.23 31 58.23 26.02C58.23 26.02 62.42 22.38 74.13 21.67C74.13 21.67 74.13 21.64 74.13 21.6L75 21.63L75.87 21.6C75.87 21.64 75.87 21.67 75.87 21.67C60.39 25.95 64.17 29.82 64.17 29.82C64.6 34.53 67.98 72.23 68.41 76.95C65.59 81.78 63.8 85.16 64.27 89.55C64.27 89.55 53.65 88.87 54.54 85.43Z" id="cjS7B7v6C"></path><path d="M47.56 250.97C49.63 251.26 51.05 251.8 51.82 252.56C52.6 253.34 53.53 254.93 54.6 257.32C55.7 259.78 64.52 279.5 65.63 281.97C65.86 282.38 66.19 282.58 66.61 282.57C67.02 282.57 67.29 282.37 67.44 281.96C67.95 280.63 70.49 274.01 75.06 262.09C80.45 273.94 83.44 280.53 84.04 281.84C84.3 282.25 84.63 282.45 85.03 282.45C85.49 282.44 85.8 282.24 85.97 281.83C86.97 279.35 94.98 259.51 95.98 257.03C96.84 254.85 97.79 253.29 98.82 252.34C99.98 251.33 101.44 250.73 102.97 250.62C103.37 250.57 103.57 250.22 103.57 249.56C103.56 248.86 103.36 248.51 102.95 248.51C101.92 248.52 100.64 248.6 99.13 248.77C97.44 248.93 95.97 249.01 94.71 249.02C93.48 249.03 92.03 248.96 90.36 248.82C89.09 248.69 87.82 248.62 86.54 248.62C86.13 248.62 85.93 248.98 85.94 249.68C85.94 250.34 86.15 250.68 86.56 250.74C87.81 250.88 88.69 251.14 89.21 251.5C89.71 251.86 89.97 252.43 89.97 253.21C89.98 254 89.63 255.29 88.94 257.11C88.54 258.15 86.53 263.35 82.92 272.7L76.39 258.22C76.7 257.04 76.87 256.38 76.91 256.25C77.07 255.87 77.22 255.48 77.36 255.08C77.98 253.38 78.51 252.28 78.95 251.75C79.41 251.24 80.23 250.91 81.41 250.77C81.81 250.72 82.01 250.37 82.01 249.71C82 249.01 81.8 248.66 81.39 248.66C80.49 248.66 79.39 248.75 78.11 248.91C75.45 249.24 72.75 249.26 70.09 248.97C68.54 248.82 67.26 248.76 66.23 248.76C65.82 248.76 65.62 249.12 65.63 249.82C65.63 250.45 65.84 250.79 66.25 250.84C68.89 251.17 70.23 252.44 70.24 254.63C70.25 255.64 70.12 256.5 69.84 257.21C69.47 258.22 67.62 263.25 64.27 272.3C60.58 263.79 58.53 259.06 58.12 258.12C57.41 256.46 57.04 255.08 57.04 253.96C57.02 252.23 58.14 251.2 60.38 250.88C60.81 250.83 61.02 250.49 61.02 249.85C61.01 249.15 60.81 248.8 60.4 248.8C59.32 248.81 58.14 248.89 56.86 249.06C55.62 249.21 54.51 249.3 53.53 249.3C52.99 249.31 52.2 249.25 51.14 249.13C49.95 248.98 48.75 248.9 47.55 248.89C47.14 248.89 46.94 249.25 46.95 249.95C46.95 250.58 47.15 250.92 47.56 250.97Z" id="bUIZr6pwq"></path><path d="M77.21 239.1L77.21 291.98L77.21 239.1Z" id="doVSWMA5j"></path><path d="M109.51 273.04L67.24 273.04L109.51 273.04Z" id="b5xN1ocGg1"></path><path d="M349.25 466.11L349.83 466.42L350.37 466.87L350.81 467.39L351.13 467.98L351.32 468.63L351.38 469.31L351.32 470L351.13 470.64L350.81 471.24L350.37 471.78L349.85 472.23L349.25 472.56L348.61 472.77L347.92 472.83L347.23 472.76L346.58 472.56L345.98 472.23L345.45 471.78L345 471.25L344.67 470.66L344.47 470L344.4 469.31L344.47 468.62L344.67 467.98L344.99 467.4L345.45 466.87L345.98 466.43L346.58 466.11L347.23 465.92L347.92 465.86L348.61 465.92L349.25 466.11Z" id="d2xAT0znjC"></path><path d="M151.11 501.56L27.66 501.56L151.11 501.56Z" id="b1bAhpkVoa"></path><path d="M150.77 459.82L-298.81 459.82L150.77 459.82Z" id="a7wGwcTgq"></path></defs><g><g><g><use xlink:href="#g3SeiwoFk7" opacity="1" fill="#710918" fill-opacity="1"></use><g><use xlink:href="#g3SeiwoFk7" opacity="1" fill-opacity="0" stroke="#000000" stroke-width="1" stroke-opacity="0"></use></g></g><g><use xlink:href="#a67RG5AZIG" opacity="1" fill="#550612" fill-opacity="1"></use><g><use xlink:href="#a67RG5AZIG" opacity="1" fill-opacity="0" stroke="#000000" stroke-width="1" stroke-opacity="0"></use></g></g><g><use xlink:href="#a3NcBdX54" opacity="1" fill="#dec9b4" fill-opacity="1"></use><g><use xlink:href="#a3NcBdX54" opacity="1" fill-opacity="0" stroke="#000000" stroke-width="1" stroke-opacity="0"></use></g></g><g><use xlink:href="#a2VvduthSp" opacity="1" fill="#433526" fill-opacity="1"></use><g><use xlink:href="#a2VvduthSp" opacity="1" fill-opacity="0" stroke="#000000" stroke-width="1" stroke-opacity="0"></use></g></g><g><use xlink:href="#f1Tn7Hn0G" opacity="1" fill="#3b040c" fill-opacity="1"></use><g><use xlink:href="#f1Tn7Hn0G" opacity="1" fill-opacity="0" stroke="#000000" stroke-width="1" stroke-opacity="0"></use></g></g><g><use xlink:href="#cjS7B7v6C" opacity="1" fill="#290208" fill-opacity="1"></use><g><use xlink:href="#cjS7B7v6C" opacity="1" fill-opacity="0" stroke="#000000" stroke-width="1" stroke-opacity="0"></use></g></g><g><use xlink:href="#bUIZr6pwq" opacity="1" fill="#ffa100" fill-opacity="1"></use><g><use xlink:href="#bUIZr6pwq" opacity="1" fill-opacity="0" stroke="#000000" stroke-width="1" stroke-opacity="0"></use></g></g><g><use xlink:href="#doVSWMA5j" opacity="1" fill="#ffa100" fill-opacity="1"></use><g><use xlink:href="#doVSWMA5j" opacity="1" fill-opacity="0" stroke="#000000" stroke-width="1" stroke-opacity="0"></use></g></g><g><use xlink:href="#b5xN1ocGg1" opacity="1" fill="#ffa100" fill-opacity="1"></use><g><use xlink:href="#b5xN1ocGg1" opacity="1" fill-opacity="0" stroke="#000000" stroke-width="1" stroke-opacity="0"></use></g></g><g><use xlink:href="#d2xAT0znjC" opacity="1" fill="#4c4136" fill-opacity="1"></use><g><use xlink:href="#d2xAT0znjC" opacity="1" fill-opacity="0" stroke="#000000" stroke-width="1" stroke-opacity="0"></use></g></g><g><use xlink:href="#b1bAhpkVoa" opacity="1" fill="#4c4136" fill-opacity="1"></use><g><use xlink:href="#b1bAhpkVoa" opacity="1" fill-opacity="0" stroke="#000000" stroke-width="1" stroke-opacity="0"></use></g></g><g><use xlink:href="#a7wGwcTgq" opacity="1" fill="#4c4136" fill-opacity="1"></use><g><use xlink:href="#a7wGwcTgq" opacity="1" fill-opacity="0" stroke="#000000" stroke-width="1" stroke-opacity="0"></use></g></g></g></g></svg>